<svg width="128" height="122" viewBox="0 0 128 122" fill="none" xmlns="http://www.w3.org/2000/svg">
<circle cx="65.0974" cy="60.4381" r="39.0095" fill="#FAFFDC"/>
<circle cx="65.0974" cy="60.4381" r="39.0095" fill="#FAFFDC"/>
<path d="M65.0972 0.433868L67.9832 27.4271H62.2111L65.0972 0.433868Z" fill="#FAFFDC"/>
<path d="M65.0972 0.433868L67.9832 27.4271H62.2111L65.0972 0.433868Z" fill="#FAFFDC"/>
<path d="M65.0972 0.433868L67.9832 27.4271H62.2111L65.0972 0.433868Z" fill="#FAFFDC"/>
<path d="M65.0972 0.433868L67.9832 27.4271H62.2111L65.0972 0.433868Z" fill="#FAFFDC"/>
<path d="M66.5985 121.44L63.3367 94.4899L69.1082 94.4095L66.5985 121.44Z" fill="#FAFFDC"/>
<path d="M66.5985 121.44L63.3367 94.4899L69.1082 94.4095L66.5985 121.44Z" fill="#FAFFDC"/>
<path d="M66.5985 121.44L63.3367 94.4899L69.1082 94.4095L66.5985 121.44Z" fill="#FAFFDC"/>
<path d="M66.5985 121.44L63.3367 94.4899L69.1082 94.4095L66.5985 121.44Z" fill="#FAFFDC"/>
<path d="M23.3461 105.341L36.315 81.4919L41.0639 84.7728L23.3461 105.341Z" fill="#FAFFDC"/>
<path d="M23.3461 105.341L36.315 81.4919L41.0639 84.7728L23.3461 105.341Z" fill="#FAFFDC"/>
<path d="M23.3461 105.341L36.315 81.4919L41.0639 84.7728L23.3461 105.341Z" fill="#FAFFDC"/>
<path d="M23.3461 105.341L36.315 81.4919L41.0639 84.7728L23.3461 105.341Z" fill="#FAFFDC"/>
<path d="M111.75 102.19L91.0388 84.6391L95.2175 80.6572L111.75 102.19Z" fill="#FAFFDC"/>
<path d="M111.75 102.19L91.0388 84.6391L95.2175 80.6572L111.75 102.19Z" fill="#FAFFDC"/>
<path d="M111.75 102.19L91.0388 84.6391L95.2175 80.6572L111.75 102.19Z" fill="#FAFFDC"/>
<path d="M111.75 102.19L91.0388 84.6391L95.2175 80.6572L111.75 102.19Z" fill="#FAFFDC"/>
<path d="M112.657 15.9624L94.6152 36.2464L90.7346 31.9734L112.657 15.9624Z" fill="#FAFFDC"/>
<path d="M112.657 15.9624L94.6152 36.2464L90.7346 31.9734L112.657 15.9624Z" fill="#FAFFDC"/>
<path d="M112.657 15.9624L94.6152 36.2464L90.7346 31.9734L112.657 15.9624Z" fill="#FAFFDC"/>
<path d="M112.657 15.9624L94.6152 36.2464L90.7346 31.9734L112.657 15.9624Z" fill="#FAFFDC"/>
<path d="M20.9033 16.0827L41.96 33.2169L37.8616 37.2814L20.9033 16.0827Z" fill="#FAFFDC"/>
<path d="M20.9033 16.0827L41.96 33.2169L37.8616 37.2814L20.9033 16.0827Z" fill="#FAFFDC"/>
<path d="M20.9033 16.0827L41.96 33.2169L37.8616 37.2814L20.9033 16.0827Z" fill="#FAFFDC"/>
<path d="M20.9033 16.0827L41.96 33.2169L37.8616 37.2814L20.9033 16.0827Z" fill="#FAFFDC"/>
<path d="M1.04188 59.769L28.1237 57.8886L27.9091 63.6567L1.04188 59.769Z" fill="#FAFFDC"/>
<path d="M1.04188 59.769L28.1237 57.8886L27.9091 63.6567L1.04188 59.769Z" fill="#FAFFDC"/>
<path d="M1.04188 59.769L28.1237 57.8886L27.9091 63.6567L1.04188 59.769Z" fill="#FAFFDC"/>
<path d="M1.04188 59.769L28.1237 57.8886L27.9091 63.6567L1.04188 59.769Z" fill="#FAFFDC"/>
<path d="M127.324 58.2315L100.253 60.2729L100.434 54.5036L127.324 58.2315Z" fill="#FAFFDC"/>
<path d="M127.324 58.2315L100.253 60.2729L100.434 54.5036L127.324 58.2315Z" fill="#FAFFDC"/>
<path d="M127.324 58.2315L100.253 60.2729L100.434 54.5036L127.324 58.2315Z" fill="#FAFFDC"/>
<path d="M127.324 58.2315L100.253 60.2729L100.434 54.5036L127.324 58.2315Z" fill="#FAFFDC"/>
</svg>
